<?xml version="1.0" standalone="no"?>
<!DOCTYPE svg PUBLIC "-//W3C//DTD SVG 20010904//EN"
 "http://www.w3.org/TR/2001/REC-SVG-20010904/DTD/svg10.dtd">
<svg version="1.0" xmlns="http://www.w3.org/2000/svg"
 width="1280.000000pt" height="1280.000000pt" viewBox="0 0 1280.000000 1280.000000"
 preserveAspectRatio="xMidYMid meet">
<metadata>
Created by potrace 1.15, written by Peter Selinger 2001-2017
</metadata>
<g transform="translate(0.000000,1280.000000) scale(0.100000,-0.100000)"
fill="#607d8b" stroke="none">
<path d="M2378 10115 c-454 -62 -849 -261 -1166 -587 -262 -269 -427 -583
-515 -982 l-31 -141 -4 -1455 c-2 -1028 0 -1484 8 -1555 35 -309 150 -630 316
-876 292 -435 707 -720 1214 -835 212 -47 205 -47 1354 -53 l1099 -6 333 -675
c743 -1504 777 -1572 803 -1589 18 -11 48 -16 104 -16 76 0 80 1 107 32 19 20
30 47 34 75 3 24 14 468 26 988 11 520 23 1000 26 1068 l6 122 2158 0 c1406 0
2202 4 2285 10 307 25 634 129 875 277 454 280 771 711 893 1213 59 239 57
191 57 1756 0 1541 1 1505 -50 1723 -51 219 -146 441 -265 622 -88 135 -130
188 -243 303 -320 328 -705 519 -1172 582 -151 20 -8103 19 -8252 -1z"/>
</g>
</svg>
